<svg xmlns="http://www.w3.org/2000/svg" xmlns:xlink="http://www.w3.org/1999/xlink" viewBox="0 0 21 21"><rect width="1" height="1" x="0" y="7" fill="#ff0080ce" /><rect width="1" height="1" x="0" y="8" fill="#ff3299ff" /><rect width="1" height="1" x="0" y="9" fill="#ff3da3ff" /><rect width="1" height="1" x="0" y="10" fill="#fe43a1ff" /><rect width="1" height="1" x="0" y="11" fill="#ff48a3ff" /><rect width="1" height="1" x="0" y="12" fill="#ff4d9eff" /><rect width="1" height="1" x="0" y="13" fill="#ff4f9dff" /><rect width="1" height="1" x="0" y="14" fill="#ff6599ff" /><rect width="1" height="1" x="0" y="15" fill="#fe72a5ff" /><rect width="1" height="1" x="0" y="16" fill="#fe73aaff" /><rect width="1" height="1" x="0" y="17" fill="#fe75abff" /><rect width="1" height="1" x="0" y="18" fill="#fe75aaff" /><rect width="1" height="1" x="0" y="19" fill="#fdb4ceff" /><rect width="1" height="1" x="1" y="6" fill="#ff0080cd" /><rect width="1" height="1" x="1" y="7" fill="#ff3399ff" /><rect width="1" height="1" x="1" y="8" fill="#ff3299ff" /><rect width="1" height="1" x="1" y="9" fill="#ff3ca3ff" /><rect width="1" height="1" x="1" y="10" fill="#ff44a1ff" /><rect width="1" height="1" x="1" y="11" fill="#fe4aa1ff" /><rect width="1" height="1" x="1" y="12" fill="#ff4b9eff" /><rect width="1" height="1" x="1" y="13" fill="#ff4f9dff" /><rect width="1" height="1" x="1" y="14" fill="#ff6799ff" /><rect width="1" height="1" x="1" y="15" fill="#ff70a3ff" /><rect width="1" height="1" x="1" y="16" fill="#fe72a9ff" /><rect width="1" height="1" x="1" y="17" fill="#ff74a9ff" /><rect width="1" height="1" x="1" y="18" fill="#fe75a9ff" /><rect width="1" height="1" x="1" y="19" fill="#fe75aaff" /><rect width="1" height="1" x="2" y="6" fill="#ff0080cb" /><rect width="1" height="1" x="2" y="7" fill="#ff3299ff" /><rect width="1" height="1" x="2" y="8" fill="#ff97bfff" /><rect width="1" height="1" x="2" y="9" fill="#ff96beff" /><rect width="1" height="1" x="2" y="10" fill="#feb5cfff" /><rect width="1" height="1" x="2" y="11" fill="#feb5cfff" /><rect width="1" height="1" x="2" y="12" fill="#feb5cfff" /><rect width="1" height="1" x="2" y="13" fill="#feb5cfff" /><rect width="1" height="1" x="2" y="14" fill="#ffb5dbff" /><rect width="1" height="1" x="2" y="15" fill="#ffb4dbff" /><rect width="1" height="1" x="2" y="16" fill="#ffb5dbff" /><rect width="1" height="1" x="2" y="17" fill="#ffb4dbff" /><rect width="1" height="1" x="2" y="18" fill="#fdb4ceff" /><rect width="1" height="1" x="2" y="19" fill="#fe75aaff" /><rect width="1" height="1" x="2" y="20" fill="#fb00584b" /><rect width="1" height="1" x="3" y="6" fill="#ff0080cd" /><rect width="1" height="1" x="3" y="7" fill="#ff96bfff" /><rect width="1" height="1" x="3" y="8" fill="#ff96beff" /><rect width="1" height="1" x="3" y="9" fill="#ffffffff" /><rect width="1" height="1" x="3" y="10" fill="#ffffffff" /><rect width="1" height="1" x="3" y="11" fill="#ffffffff" /><rect width="1" height="1" x="3" y="12" fill="#ffffffff" /><rect width="1" height="1" x="3" y="13" fill="#ffffffff" /><rect width="1" height="1" x="3" y="14" fill="#ffb5dbff" /><rect width="1" height="1" x="3" y="15" fill="#ffffffff" /><rect width="1" height="1" x="3" y="16" fill="#ffffffff" /><rect width="1" height="1" x="3" y="17" fill="#ffffffff" /><rect width="1" height="1" x="3" y="18" fill="#ffffffff" /><rect width="1" height="1" x="3" y="19" fill="#fe75a9ff" /><rect width="1" height="1" x="3" y="20" fill="#feb5cfff" /><rect width="1" height="1" x="4" y="6" fill="#ff007ecd" /><rect width="1" height="1" x="4" y="7" fill="#ff96bfff" /><rect width="1" height="1" x="4" y="8" fill="#ffffffff" /><rect width="1" height="1" x="4" y="9" fill="#ffffffff" /><rect width="1" height="1" x="4" y="10" fill="#ffffffff" /><rect width="1" height="1" x="4" y="11" fill="#ffffffff" /><rect width="1" height="1" x="4" y="12" fill="#fd288dff" /><rect width="1" height="1" x="4" y="13" fill="#ff96beff" /><rect width="1" height="1" x="4" y="14" fill="#ffffffff" /><rect width="1" height="1" x="4" y="15" fill="#ffffffff" /><rect width="1" height="1" x="4" y="16" fill="#ffffffff" /><rect width="1" height="1" x="4" y="17" fill="#ffffffff" /><rect width="1" height="1" x="4" y="18" fill="#ffffffff" /><rect width="1" height="1" x="4" y="19" fill="#fe75abff" /><rect width="1" height="1" x="4" y="20" fill="#feb5cfff" /><rect width="1" height="1" x="5" y="0" fill="#cb00aab8" /><rect width="1" height="1" x="5" y="6" fill="#ff007ecd" /><rect width="1" height="1" x="5" y="7" fill="#fdb4ceff" /><rect width="1" height="1" x="5" y="8" fill="#ffffffff" /><rect width="1" height="1" x="5" y="9" fill="#ffffffff" /><rect width="1" height="1" x="5" y="10" fill="#ffffffff" /><rect width="1" height="1" x="5" y="11" fill="#fd288dff" /><rect width="1" height="1" x="5" y="12" fill="#ffffffff" /><rect width="1" height="1" x="5" y="13" fill="#ff97bfff" /><rect width="1" height="1" x="5" y="14" fill="#ffffffff" /><rect width="1" height="1" x="5" y="15" fill="#ffffffff" /><rect width="1" height="1" x="5" y="16" fill="#ffffffff" /><rect width="1" height="1" x="5" y="17" fill="#ffffffff" /><rect width="1" height="1" x="5" y="18" fill="#ffffffff" /><rect width="1" height="1" x="5" y="19" fill="#ffffffff" /><rect width="1" height="1" x="6" y="0" fill="#28009b33" /><rect width="1" height="1" x="6" y="1" fill="#cf00adb8" /><rect width="1" height="1" x="6" y="2" fill="#ff00844b" /><rect width="1" height="1" x="6" y="6" fill="#ff0080cd" /><rect width="1" height="1" x="6" y="7" fill="#fdb4ceff" /><rect width="1" height="1" x="6" y="8" fill="#ffffffff" /><rect width="1" height="1" x="6" y="9" fill="#ffffffff" /><rect width="1" height="1" x="6" y="10" fill="#ffffffff" /><rect width="1" height="1" x="6" y="11" fill="#fd288cff" /><rect width="1" height="1" x="6" y="12" fill="#fd298eff" /><rect width="1" height="1" x="6" y="13" fill="#ff96bfff" /><rect width="1" height="1" x="6" y="14" fill="#ffffffff" /><rect width="1" height="1" x="6" y="15" fill="#ffffffff" /><rect width="1" height="1" x="6" y="16" fill="#ffffffff" /><rect width="1" height="1" x="6" y="17" fill="#a2d6e8ff" /><rect width="1" height="1" x="6" y="18" fill="#a2d6e8ff" /><rect width="1" height="1" x="6" y="19" fill="#a2d6e9ff" /><rect width="1" height="1" x="6" y="20" fill="#008bbf5d" /><rect width="1" height="1" x="7" y="1" fill="#2d009133" /><rect width="1" height="1" x="7" y="2" fill="#ea4ab7ff" /><rect width="1" height="1" x="7" y="3" fill="#ff00824a" /><rect width="1" height="1" x="7" y="6" fill="#fd007eca" /><rect width="1" height="1" x="7" y="7" fill="#fdb4ceff" /><rect width="1" height="1" x="7" y="8" fill="#ffffffff" /><rect width="1" height="1" x="7" y="9" fill="#ffffffff" /><rect width="1" height="1" x="7" y="10" fill="#ffffffff" /><rect width="1" height="1" x="7" y="11" fill="#fc288cff" /><rect width="1" height="1" x="7" y="12" fill="#fe288eff" /><rect width="1" height="1" x="7" y="13" fill="#ff96bfff" /><rect width="1" height="1" x="7" y="14" fill="#ffffffff" /><rect width="1" height="1" x="7" y="15" fill="#ffffffff" /><rect width="1" height="1" x="7" y="16" fill="#ffffffff" /><rect width="1" height="1" x="7" y="17" fill="#a2d6e8ff" /><rect width="1" height="1" x="7" y="18" fill="#a2d6e9ff" /><rect width="1" height="1" x="7" y="19" fill="#a3d6e9ff" /><rect width="1" height="1" x="7" y="20" fill="#a2d5e8ff" /><rect width="1" height="1" x="8" y="2" fill="#5a009430" /><rect width="1" height="1" x="8" y="3" fill="#eb48b6ff" /><rect width="1" height="1" x="8" y="4" fill="#ff00844b" /><rect width="1" height="1" x="8" y="5" fill="#da0079ae" /><rect width="1" height="1" x="8" y="6" fill="#ff007dcd" /><rect width="1" height="1" x="8" y="7" fill="#feb5cfff" /><rect width="1" height="1" x="8" y="8" fill="#ffffffff" /><rect width="1" height="1" x="8" y="9" fill="#ffffffff" /><rect width="1" height="1" x="8" y="10" fill="#ffffffff" /><rect width="1" height="1" x="8" y="11" fill="#fc288cff" /><rect width="1" height="1" x="8" y="12" fill="#ffffffff" /><rect width="1" height="1" x="8" y="13" fill="#ff96beff" /><rect width="1" height="1" x="8" y="14" fill="#ffffffff" /><rect width="1" height="1" x="8" y="15" fill="#ffffffff" /><rect width="1" height="1" x="8" y="16" fill="#a2d6e9ff" /><rect width="1" height="1" x="8" y="17" fill="#a2d6e9ff" /><rect width="1" height="1" x="8" y="18" fill="#a2d5e8ff" /><rect width="1" height="1" x="8" y="19" fill="#a2d6e8ff" /><rect width="1" height="1" x="8" y="20" fill="#a3d6e9ff" /><rect width="1" height="1" x="9" y="3" fill="#59009c39" /><rect width="1" height="1" x="9" y="4" fill="#e45cafff" /><rect width="1" height="1" x="9" y="5" fill="#fe288eff" /><rect width="1" height="1" x="9" y="6" fill="#ff339aff" /><rect width="1" height="1" x="9" y="7" fill="#feb5cfff" /><rect width="1" height="1" x="9" y="8" fill="#ffffffff" /><rect width="1" height="1" x="9" y="9" fill="#ffffffff" /><rect width="1" height="1" x="9" y="10" fill="#ffffffff" /><rect width="1" height="1" x="9" y="11" fill="#ffffffff" /><rect width="1" height="1" x="9" y="12" fill="#fd298eff" /><rect width="1" height="1" x="9" y="13" fill="#ff97bfff" /><rect width="1" height="1" x="9" y="14" fill="#ffffffff" /><rect width="1" height="1" x="9" y="15" fill="#ffffffff" /><rect width="1" height="1" x="9" y="16" fill="#ffffffff" /><rect width="1" height="1" x="9" y="17" fill="#ffffffff" /><rect width="1" height="1" x="9" y="18" fill="#ffffffff" /><rect width="1" height="1" x="9" y="19" fill="#fd75a9ff" /><rect width="1" height="1" x="9" y="20" fill="#fdb4ceff" /><rect width="1" height="1" x="10" y="4" fill="#59009c39" /><rect width="1" height="1" x="10" y="5" fill="#fe288eff" /><rect width="1" height="1" x="10" y="6" fill="#ff349aff" /><rect width="1" height="1" x="10" y="7" fill="#feb5cfff" /><rect width="1" height="1" x="10" y="8" fill="#ffffffff" /><rect width="1" height="1" x="10" y="9" fill="#ffffffff" /><rect width="1" height="1" x="10" y="10" fill="#ffffffff" /><rect width="1" height="1" x="10" y="11" fill="#ffffffff" /><rect width="1" height="1" x="10" y="12" fill="#ffffffff" /><rect width="1" height="1" x="10" y="13" fill="#ffffffff" /><rect width="1" height="1" x="10" y="14" fill="#ffb5dbff" /><rect width="1" height="1" x="10" y="15" fill="#feb5cfff" /><rect width="1" height="1" x="10" y="16" fill="#fd288cff" /><rect width="1" height="1" x="10" y="17" fill="#ffffffff" /><rect width="1" height="1" x="10" y="18" fill="#ffffffff" /><rect width="1" height="1" x="10" y="19" fill="#fe75a9ff" /><rect width="1" height="1" x="10" y="20" fill="#feb5cfff" /><rect width="1" height="1" x="11" y="5" fill="#fd0078d6" /><rect width="1" height="1" x="11" y="6" fill="#ff369aff" /><rect width="1" height="1" x="11" y="7" fill="#feb5cfff" /><rect width="1" height="1" x="11" y="8" fill="#ffffffff" /><rect width="1" height="1" x="11" y="9" fill="#ffffffff" /><rect width="1" height="1" x="11" y="10" fill="#ffffffff" /><rect width="1" height="1" x="11" y="11" fill="#ffffffff" /><rect width="1" height="1" x="11" y="12" fill="#ffffffff" /><rect width="1" height="1" x="11" y="13" fill="#ffffffff" /><rect width="1" height="1" x="11" y="14" fill="#ffffffff" /><rect width="1" height="1" x="11" y="15" fill="#fd298eff" /><rect width="1" height="1" x="11" y="16" fill="#ffffffff" /><rect width="1" height="1" x="11" y="17" fill="#fd298eff" /><rect width="1" height="1" x="11" y="18" fill="#ffffffff" /><rect width="1" height="1" x="11" y="19" fill="#fe75abff" /><rect width="1" height="1" x="11" y="20" fill="#fdb4ceff" /><rect width="1" height="1" x="12" y="4" fill="#6a008365" /><rect width="1" height="1" x="12" y="5" fill="#ff0078d4" /><rect width="1" height="1" x="12" y="6" fill="#ff3299ff" /><rect width="1" height="1" x="12" y="7" fill="#feb5cfff" /><rect width="1" height="1" x="12" y="8" fill="#ffffffff" /><rect width="1" height="1" x="12" y="9" fill="#ffffffff" /><rect width="1" height="1" x="12" y="10" fill="#ffffffff" /><rect width="1" height="1" x="12" y="11" fill="#ffffffff" /><rect width="1" height="1" x="12" y="12" fill="#ffffffff" /><rect width="1" height="1" x="12" y="13" fill="#ffffffff" /><rect width="1" height="1" x="12" y="14" fill="#ffffffff" /><rect width="1" height="1" x="12" y="15" fill="#fd288dff" /><rect width="1" height="1" x="12" y="16" fill="#ffffffff" /><rect width="1" height="1" x="12" y="17" fill="#feb5cfff" /><rect width="1" height="1" x="12" y="18" fill="#feb5cfff" /><rect width="1" height="1" x="12" y="19" fill="#fe75abff" /><rect width="1" height="1" x="12" y="20" fill="#feb5cfff" /><rect width="1" height="1" x="13" y="3" fill="#e0009ab5" /><rect width="1" height="1" x="13" y="4" fill="#af00a88e" /><rect width="1" height="1" x="13" y="5" fill="#ff3299ff" /><rect width="1" height="1" x="13" y="6" fill="#ff3298ff" /><rect width="1" height="1" x="13" y="7" fill="#fdb4ceff" /><rect width="1" height="1" x="13" y="8" fill="#ffffffff" /><rect width="1" height="1" x="13" y="9" fill="#ffffffff" /><rect width="1" height="1" x="13" y="10" fill="#ffffffff" /><rect width="1" height="1" x="13" y="11" fill="#ffffffff" /><rect width="1" height="1" x="13" y="12" fill="#ffffffff" /><rect width="1" height="1" x="13" y="13" fill="#ffffffff" /><rect width="1" height="1" x="13" y="14" fill="#ffffffff" /><rect width="1" height="1" x="13" y="15" fill="#fd288cff" /><rect width="1" height="1" x="13" y="16" fill="#ffffffff" /><rect width="1" height="1" x="13" y="17" fill="#fc288cff" /><rect width="1" height="1" x="13" y="18" fill="#ffffffff" /><rect width="1" height="1" x="13" y="19" fill="#fe75a9ff" /><rect width="1" height="1" x="13" y="20" fill="#feb5cfff" /><rect width="1" height="1" x="14" y="2" fill="#f50096e8" /><rect width="1" height="1" x="14" y="3" fill="#ff00824a" /><rect width="1" height="1" x="14" y="6" fill="#ff0080cc" /><rect width="1" height="1" x="14" y="7" fill="#feb5cfff" /><rect width="1" height="1" x="14" y="8" fill="#ffffffff" /><rect width="1" height="1" x="14" y="9" fill="#ffffffff" /><rect width="1" height="1" x="14" y="10" fill="#ffffffff" /><rect width="1" height="1" x="14" y="11" fill="#ffffffff" /><rect width="1" height="1" x="14" y="12" fill="#ffffffff" /><rect width="1" height="1" x="14" y="13" fill="#ffffffff" /><rect width="1" height="1" x="14" y="14" fill="#ffb4dbff" /><rect width="1" height="1" x="14" y="15" fill="#feb5cfff" /><rect width="1" height="1" x="14" y="16" fill="#fd288dff" /><rect width="1" height="1" x="14" y="17" fill="#ffffffff" /><rect width="1" height="1" x="14" y="18" fill="#ffffffff" /><rect width="1" height="1" x="14" y="19" fill="#fe75abff" /><rect width="1" height="1" x="14" y="20" fill="#fdb4ceff" /><rect width="1" height="1" x="15" y="0" fill="#55009c39" /><rect width="1" height="1" x="15" y="1" fill="#ce00a0a4" /><rect width="1" height="1" x="15" y="2" fill="#ff00844b" /><rect width="1" height="1" x="15" y="6" fill="#ff0080cd" /><rect width="1" height="1" x="15" y="7" fill="#fdb4ceff" /><rect width="1" height="1" x="15" y="8" fill="#ffffffff" /><rect width="1" height="1" x="15" y="9" fill="#ffffffff" /><rect width="1" height="1" x="15" y="10" fill="#ffffffff" /><rect width="1" height="1" x="15" y="11" fill="#ffffffff" /><rect width="1" height="1" x="15" y="12" fill="#fd298eff" /><rect width="1" height="1" x="15" y="13" fill="#ff96bfff" /><rect width="1" height="1" x="15" y="14" fill="#ffffffff" /><rect width="1" height="1" x="15" y="15" fill="#ffffffff" /><rect width="1" height="1" x="15" y="16" fill="#ffffffff" /><rect width="1" height="1" x="15" y="17" fill="#ffffffff" /><rect width="1" height="1" x="15" y="18" fill="#ffffffff" /><rect width="1" height="1" x="15" y="19" fill="#fe75a9ff" /><rect width="1" height="1" x="15" y="20" fill="#fdb4ceff" /><rect width="1" height="1" x="16" y="0" fill="#69008466" /><rect width="1" height="1" x="16" y="6" fill="#ff0080cd" /><rect width="1" height="1" x="16" y="7" fill="#feb5cfff" /><rect width="1" height="1" x="16" y="8" fill="#ffffffff" /><rect width="1" height="1" x="16" y="9" fill="#ffffffff" /><rect width="1" height="1" x="16" y="10" fill="#ffffffff" /><rect width="1" height="1" x="16" y="11" fill="#fc288cff" /><rect width="1" height="1" x="16" y="12" fill="#ffffffff" /><rect width="1" height="1" x="16" y="13" fill="#ff96bfff" /><rect width="1" height="1" x="16" y="14" fill="#ffffffff" /><rect width="1" height="1" x="16" y="15" fill="#ffffffff" /><rect width="1" height="1" x="16" y="16" fill="#a2d5e8ff" /><rect width="1" height="1" x="16" y="17" fill="#a2d5e8ff" /><rect width="1" height="1" x="16" y="18" fill="#a3d6e9ff" /><rect width="1" height="1" x="16" y="19" fill="#a3d6e9ff" /><rect width="1" height="1" x="16" y="20" fill="#a2d6e9ff" /><rect width="1" height="1" x="17" y="6" fill="#ff0080cc" /><rect width="1" height="1" x="17" y="7" fill="#fdb4ceff" /><rect width="1" height="1" x="17" y="8" fill="#ffffffff" /><rect width="1" height="1" x="17" y="9" fill="#ffffffff" /><rect width="1" height="1" x="17" y="10" fill="#ffffffff" /><rect width="1" height="1" x="17" y="11" fill="#fd288cff" /><rect width="1" height="1" x="17" y="12" fill="#fd298eff" /><rect width="1" height="1" x="17" y="13" fill="#ff96beff" /><rect width="1" height="1" x="17" y="14" fill="#ffffffff" /><rect width="1" height="1" x="17" y="15" fill="#ffffffff" /><rect width="1" height="1" x="17" y="16" fill="#ffffffff" /><rect width="1" height="1" x="17" y="17" fill="#a2d5e8ff" /><rect width="1" height="1" x="17" y="18" fill="#a2d6e8ff" /><rect width="1" height="1" x="17" y="19" fill="#a2d6e9ff" /><rect width="1" height="1" x="17" y="20" fill="#a2d6e9ff" /><rect width="1" height="1" x="18" y="6" fill="#ff007ecc" /><rect width="1" height="1" x="18" y="7" fill="#feb5cfff" /><rect width="1" height="1" x="18" y="8" fill="#ffffffff" /><rect width="1" height="1" x="18" y="9" fill="#ffffffff" /><rect width="1" height="1" x="18" y="10" fill="#ffffffff" /><rect width="1" height="1" x="18" y="11" fill="#fd298eff" /><rect width="1" height="1" x="18" y="12" fill="#ffffffff" /><rect width="1" height="1" x="18" y="13" fill="#ff96beff" /><rect width="1" height="1" x="18" y="14" fill="#ffffffff" /><rect width="1" height="1" x="18" y="15" fill="#ffffffff" /><rect width="1" height="1" x="18" y="16" fill="#ffffffff" /><rect width="1" height="1" x="18" y="17" fill="#a3d6e9ff" /><rect width="1" height="1" x="18" y="18" fill="#a2d5e8ff" /><rect width="1" height="1" x="18" y="19" fill="#a2d6e8ff" /><rect width="1" height="1" x="18" y="20" fill="#a2d6e9ff" /><rect width="1" height="1" x="19" y="6" fill="#ff0080cc" /><rect width="1" height="1" x="19" y="7" fill="#ff96bfff" /><rect width="1" height="1" x="19" y="8" fill="#ffffffff" /><rect width="1" height="1" x="19" y="9" fill="#ffffffff" /><rect width="1" height="1" x="19" y="10" fill="#ffffffff" /><rect width="1" height="1" x="19" y="11" fill="#ffffffff" /><rect width="1" height="1" x="19" y="12" fill="#fd288cff" /><rect width="1" height="1" x="19" y="13" fill="#ff96bfff" /><rect width="1" height="1" x="19" y="14" fill="#ffffffff" /><rect width="1" height="1" x="19" y="15" fill="#ffffffff" /><rect width="1" height="1" x="19" y="16" fill="#ffffffff" /><rect width="1" height="1" x="19" y="17" fill="#ffffffff" /><rect width="1" height="1" x="19" y="18" fill="#feb5cfff" /><rect width="1" height="1" x="19" y="19" fill="#fe75abff" /><rect width="1" height="1" x="20" y="7" fill="#ff3299ff" /><rect width="1" height="1" x="20" y="8" fill="#ff3399ff" /><rect width="1" height="1" x="20" y="9" fill="#ff3aa2ff" /><rect width="1" height="1" x="20" y="10" fill="#ff44a0ff" /><rect width="1" height="1" x="20" y="11" fill="#fe4aa1ff" /><rect width="1" height="1" x="20" y="12" fill="#ff4d9fff" /><rect width="1" height="1" x="20" y="13" fill="#ff4f9dff" /><rect width="1" height="1" x="20" y="14" fill="#ff6699ff" /><rect width="1" height="1" x="20" y="15" fill="#ff70a2ff" /><rect width="1" height="1" x="20" y="16" fill="#fe73a8ff" /><rect width="1" height="1" x="20" y="17" fill="#ff7cadff" /><rect width="1" height="1" x="20" y="18" fill="#ff74a9ff" /><rect width="1" height="1" x="20" y="19" fill="#feb5cfff" /></svg>