<?xml version="1.0" encoding="UTF-8"?>
<svg xmlns="http://www.w3.org/2000/svg" viewBox="0 0 198.52 35.78">
  <g id="bangumi">
    <path fill="#f19aa1" d="m.12,27.03L13.27.79c.27-.53.72-.79,1.36-.79h5.28c.64,0,.83.27.56.79l-3.59,7.16h12.96c1.31,0,2.24.39,2.8,1.17.55.78.56,1.72.01,2.8l-5.98,11.93c-.54,1.09-1.49,2.02-2.82,2.8-1.34.78-2.66,1.17-3.97,1.17H.68c-.64,0-.83-.26-.56-.8Zm18.95-3.76c.66-.38,1.12-.85,1.4-1.41l3.99-7.95c.28-.56.28-1.03.01-1.41-.27-.38-.74-.58-1.42-.58h-8.16l-5.98,11.93h8.16c.67,0,1.34-.19,1.99-.58Z"/>
    <path fill="#f19aa1" d="m29.08,26.66c-.55-.78-.56-1.72-.01-2.8l1.99-3.98c.54-1.09,1.48-2.02,2.82-2.8,1.33-.78,2.66-1.17,3.97-1.17h12.96l1-1.99c.28-.56.28-1.03.01-1.41-.27-.38-.74-.58-1.42-.58h-14.4c-.64,0-.83-.26-.56-.8l1.2-2.39c.27-.53.72-.79,1.36-.79h19.2c1.31,0,2.24.39,2.8,1.17.55.78.56,1.72.01,2.8l-5.98,11.93c-.54,1.09-1.49,2.02-2.82,2.8-1.34.78-2.66,1.17-3.97,1.17h-15.36c-1.31,0-2.24-.39-2.8-1.17Zm17.34-3.38c.66-.38,1.12-.85,1.4-1.41l1-1.99h-8.16c-.67,0-1.34.19-1.99.58s-1.12.85-1.4,1.41c-.28.56-.28,1.03-.01,1.41.27.38.74.58,1.42.58h5.76c.67,0,1.34-.19,1.99-.58Z"/>
    <path fill="#f19aa1" d="m54.84,27.03l7.57-15.11c.54-1.09,1.48-2.02,2.82-2.8,1.33-.78,2.66-1.17,3.97-1.17h15.36c1.31,0,2.24.39,2.8,1.17.55.78.56,1.72.01,2.8l-7.57,15.11c-.27.53-.72.8-1.36.8h-5.28c-.64,0-.83-.26-.56-.8l6.58-13.12c.28-.56.28-1.03.01-1.41-.27-.38-.74-.58-1.42-.58h-5.76c-.67,0-1.34.19-1.99.58-.66.38-1.12.85-1.4,1.41l-6.58,13.12c-.27.53-.72.8-1.36.8h-5.28c-.64,0-.83-.26-.56-.8Z"/>
    <path fill="#f19aa1" d="m78.21,34.98l1.2-2.39c.27-.53.72-.8,1.36-.8h14.4c.67,0,1.34-.19,1.99-.58.66-.38,1.12-.85,1.4-1.41l1-1.99h-12.96c-1.31,0-2.24-.39-2.8-1.17-.55-.78-.56-1.72-.01-2.8l5.98-11.93c.54-1.09,1.48-2.02,2.82-2.8,1.33-.78,2.66-1.17,3.97-1.17h19.2c.64,0,.83.27.56.79l-11.56,23.06c-.54,1.09-1.49,2.02-2.82,2.8-1.34.78-2.66,1.17-3.97,1.17h-19.2c-.64,0-.83-.27-.56-.79Zm29.32-23.06h-8.16c-.67,0-1.34.19-1.99.58-.66.38-1.12.85-1.4,1.41l-3.99,7.95c-.28.56-.28,1.03-.01,1.41.27.38.74.58,1.42.58h8.16l5.98-11.93Z"/>
    <path fill="#f19aa1" d="m111.16,26.66c-.55-.78-.56-1.72-.01-2.8l7.57-15.11c.27-.53.72-.79,1.36-.79h5.28c.64,0,.83.27.56.79l-6.58,13.12c-.28.56-.28,1.03-.01,1.41.27.38.74.58,1.42.58h5.76c.67,0,1.34-.19,1.99-.58.66-.38,1.12-.85,1.4-1.41l6.58-13.12c.27-.53.72-.79,1.36-.79h5.28c.64,0,.83.27.56.79l-7.57,15.11c-.54,1.09-1.49,2.02-2.82,2.8-1.34.78-2.66,1.17-3.97,1.17h-15.36c-1.31,0-2.24-.39-2.8-1.17Z"/>
    <path fill="#f19aa1" d="m187.2,9.12c-.55-.78-1.48-1.17-2.8-1.17h-13.43l5.63-5.63c.28-.28.28-.73,0-1.01l-1.1-1.1c-.28-.28-.73-.28-1.01,0l-7.74,7.74h-.01l-7.74-7.74c-.28-.28-.73-.28-1.01,0l-1.1,1.1c-.28.28-.28.73,0,1.01l5.63,5.63h-11.24c-1.31,0-2.64.39-3.97,1.17-1.34.78-2.28,1.72-2.82,2.8l-7.57,15.11c-.27.53-.08.8.56.8h5.28c.64,0,1.09-.26,1.36-.8l6.58-13.12c.28-.56.75-1.03,1.4-1.41.66-.38,1.32-.58,1.99-.58h5.76c.67,0,1.14.19,1.42.58.27.38.27.85-.01,1.41l-6.58,13.12c-.27.53-.08.8.56.8h5.28c.64,0,1.09-.26,1.36-.8l6.58-13.12c.28-.56.75-1.03,1.4-1.41.66-.38,1.32-.58,1.99-.58h5.76c.67,0,1.14.19,1.42.58.27.38.27.85-.01,1.41l-6.58,13.12c-.27.53-.08.8.56.8h5.28c.64,0,1.09-.26,1.36-.8l7.57-15.11c.54-1.09.54-2.02-.01-2.8Z"/>
    <path fill="#f19aa1" d="m182.03,27.03l9.17-18.29c.27-.53.72-.79,1.36-.79h5.28c.64,0,.83.27.56.79l-9.17,18.29c-.27.53-.72.8-1.36.8h-5.28c-.64,0-.83-.26-.56-.8Z"/>
  </g>
</svg>